<?xml version="1.0" standalone="no"?>
<!DOCTYPE svg PUBLIC "-//W3C//DTD SVG 20010904//EN"
 "http://www.w3.org/TR/2001/REC-SVG-20010904/DTD/svg10.dtd">
<svg version="1.0" xmlns="http://www.w3.org/2000/svg"
 width="694.000000pt" height="694.000000pt" viewBox="0 0 694.000000 694.000000"
 preserveAspectRatio="xMidYMid meet">
<metadata>
Created by potrace 1.14, written by Peter Selinger 2001-2017
</metadata>
<g transform="translate(0.000000,694.000000) scale(0.100000,-0.100000)"
fill="#000000" stroke="none">
<path d="M3278 4601 c3 -9 1 -12 -6 -7 -7 4 -12 2 -12 -6 0 -9 -3 -9 -10 2 -8
12 -10 12 -11 -5 0 -11 -3 -15 -5 -9 -6 13 -44 7 -44 -7 0 -5 -7 -9 -15 -9 -8
0 -15 -4 -15 -10 0 -5 -7 -7 -15 -4 -8 4 -15 2 -15 -2 0 -5 -19 -10 -43 -11
-23 -2 -47 -9 -52 -15 -6 -7 -17 -14 -25 -16 -8 -2 -33 -15 -55 -30 -22 -14
-44 -27 -50 -27 -15 -1 -88 -38 -103 -53 -8 -7 -30 -25 -50 -40 -20 -15 -48
-39 -62 -53 -14 -15 -38 -34 -53 -44 -15 -10 -26 -20 -23 -22 2 -2 -25 -34
-60 -71 -35 -37 -64 -72 -64 -78 0 -7 -7 -15 -16 -18 -8 -3 -12 -10 -9 -16 3
-5 1 -10 -5 -10 -6 0 -9 -4 -6 -9 3 -5 -1 -14 -9 -21 -8 -7 -12 -16 -9 -21 3
-5 0 -9 -5 -9 -6 0 -11 -9 -11 -20 0 -11 -4 -20 -10 -20 -5 0 -10 -9 -10 -19
0 -11 -5 -21 -11 -23 -5 -2 -11 -10 -13 -18 -3 -16 -9 -31 -31 -90 -28 -73
-37 -107 -50 -195 -4 -27 -10 -54 -15 -60 -12 -16 -9 -159 4 -167 15 -10 28
-10 22 0 -5 9 41 9 49 0 3 -3 21 -2 39 2 18 4 41 3 50 -2 10 -6 16 -5 16 2 0
5 5 10 11 10 5 0 7 -5 3 -11 -5 -8 -1 -8 14 0 15 8 23 8 27 0 5 -7 15 -3 30
11 17 16 24 18 28 8 4 -10 6 -10 6 0 1 9 6 10 20 2 14 -7 21 -6 24 3 4 9 6 9
6 0 1 -7 7 -10 14 -8 23 9 106 11 101 3 -3 -4 0 -8 5 -8 6 0 11 5 11 10 0 6
19 1 42 -11 28 -14 43 -18 46 -10 2 6 10 11 18 11 10 0 12 5 8 13 -5 7 0 6 11
-3 11 -9 16 -10 11 -2 -4 6 -3 12 1 12 5 0 15 -6 22 -12 11 -10 12 -10 7 -1
-10 18 25 5 42 -15 6 -9 12 -12 12 -8 0 5 7 3 15 -4 11 -9 15 -9 15 -1 0 7 5
9 13 5 6 -4 9 -4 5 1 -11 12 11 35 28 28 7 -3 11 -10 7 -16 -4 -6 0 -8 10 -4
9 3 19 2 22 -3 4 -7 13 -7 24 0 10 5 22 6 26 2 3 -4 6 -2 5 3 -5 21 0 36 10
30 6 -3 10 -1 10 5 0 7 6 8 18 1 11 -6 24 -6 35 0 13 8 19 6 23 -5 8 -21 34
-28 50 -15 10 8 14 8 14 0 0 -17 30 -13 36 4 5 12 10 13 20 5 9 -8 18 -8 33 0
15 7 27 8 39 1 9 -6 13 -11 9 -11 -5 0 -1 -7 7 -16 15 -14 18 -14 41 4 13 11
21 23 17 27 -4 4 3 1 16 -6 18 -11 26 -12 43 -1 12 8 18 9 15 4 -8 -13 17 -22
42 -15 14 3 19 10 15 21 -3 10 3 5 15 -9 21 -25 62 -33 90 -15 7 4 17 4 24 0
7 -4 8 -3 4 4 -9 15 -1 15 26 1 15 -8 19 -8 14 0 -4 6 -2 11 3 11 6 0 11 -4
11 -10 0 -5 5 -10 11 -10 5 0 8 4 5 8 -3 5 1 9 9 9 8 0 12 -3 10 -6 -5 -9 61
-5 76 4 8 5 10 4 5 -3 -4 -7 -2 -12 3 -12 6 0 11 4 11 10 0 6 9 6 26 0 14 -6
23 -6 20 -1 -9 15 21 7 41 -11 22 -19 50 -16 70 9 8 10 12 12 8 6 -3 -7 -1
-13 4 -13 6 0 11 5 11 11 0 8 5 8 15 -1 12 -10 15 -10 15 0 0 9 4 9 17 -1 11
-10 14 -10 9 -1 -4 6 -3 12 3 12 5 0 12 -6 14 -12 4 -10 6 -10 6 0 1 6 8 12
16 12 8 0 15 -6 15 -12 0 -10 2 -10 8 -1 5 7 13 9 22 3 9 -6 18 -3 25 7 10 13
14 13 20 3 5 -9 4 -11 -3 -6 -7 4 -12 2 -12 -3 0 -14 17 -14 25 -1 3 6 14 10
23 10 15 0 15 -2 2 -10 -13 -8 -13 -10 2 -10 9 0 19 -6 21 -12 4 -10 6 -10 6
0 1 8 6 10 13 6 16 -10 58 -12 52 -2 -3 4 0 8 5 8 6 0 11 -4 11 -10 0 -6 9 -6
24 0 17 6 26 5 30 -3 3 -9 5 -9 5 0 1 8 10 9 31 3 20 -6 30 -5 30 2 0 7 4 7
13 0 10 -9 19 -8 34 3 17 12 19 23 17 87 -1 40 -4 80 -7 88 -3 8 -8 29 -10 45
-17 105 -29 161 -38 170 -5 5 -9 16 -9 26 0 27 -88 199 -146 284 -30 44 -78
105 -106 136 -55 57 -150 139 -163 139 -4 0 -16 11 -26 24 -10 13 -44 36 -76
51 -32 15 -60 31 -63 35 -7 10 -79 42 -107 47 -12 2 -39 11 -60 20 -21 9 -47
18 -58 20 -46 8 -101 26 -114 36 -12 9 -13 9 -7 0 4 -7 2 -13 -3 -13 -6 0 -11
7 -11 15 0 8 -3 15 -7 16 -5 0 -18 2 -31 5 -12 2 -33 -2 -45 -10 -13 -8 -48
-14 -87 -13 -45 0 -56 2 -35 7 17 3 44 4 62 2 18 -2 40 1 50 7 13 8 -7 10 -78
7 -52 -1 -101 -6 -107 -10 -6 -3 -13 -2 -17 4 -9 14 -35 12 -31 -2 1 -7 1 -10
-1 -5 -3 4 -9 7 -14 7 -6 0 -7 -5 -3 -12 4 -7 3 -8 -5 -4 -8 5 -9 12 -2 20 7
8 5 12 -8 12 -12 0 -17 -5 -13 -15z"/>
<path d="M2268 3317 c-7 -189 -2 -230 25 -209 13 9 74 9 83 -1 4 -3 4 -12 1
-20 -3 -9 -20 -13 -51 -11 -25 1 -46 -2 -46 -7 0 -6 -4 -8 -8 -5 -11 6 -8 -56
3 -74 5 -9 4 -11 -4 -6 -8 5 -10 -6 -5 -41 3 -26 9 -50 14 -53 6 -4 2364 -5
2391 -1 9 1 9 164 0 179 -9 16 -81 34 -81 21 0 -4 -6 -6 -14 -3 -8 3 -13 11
-10 18 5 14 61 16 81 3 14 -9 27 9 17 25 -4 6 -3 8 4 4 7 -4 10 19 9 76 -1 46
3 90 8 98 5 9 0 8 -13 -4 -15 -13 -22 -15 -22 -6 0 10 -4 9 -17 -1 -9 -8 -14
-9 -10 -3 3 6 0 11 -8 11 -8 0 -12 -4 -9 -9 3 -4 1 -8 -5 -8 -5 0 -12 6 -14
13 -4 9 -6 8 -6 -2 -1 -11 -4 -11 -16 -1 -11 9 -15 9 -15 1 0 -7 -5 -9 -12 -4
-18 11 -78 11 -85 0 -3 -5 -9 -3 -14 4 -6 10 -9 11 -9 2 0 -7 -5 -13 -11 -13
-5 0 -8 4 -5 8 2 4 -4 8 -14 8 -10 0 -17 -4 -14 -8 2 -4 -5 -6 -16 -5 -11 1
-20 6 -20 12 0 5 -5 3 -10 -5 -6 -10 -10 -11 -10 -2 0 6 -5 12 -11 12 -5 0 -8
-4 -4 -9 3 -6 -4 -8 -15 -5 -11 2 -29 6 -40 8 -11 3 -18 1 -15 -5 4 -5 1 -9
-4 -9 -6 0 -11 6 -11 13 0 8 -4 7 -10 -3 -9 -13 -10 -13 -10 0 0 13 -1 13 -10
0 -8 -13 -10 -13 -10 0 0 11 -3 11 -12 2 -14 -14 -32 -16 -23 -3 6 10 -27 7
-45 -4 -6 -3 -10 0 -10 7 0 9 -3 9 -10 -2 -6 -9 -13 -11 -17 -5 -11 13 -36 18
-28 5 7 -11 -8 -14 -19 -3 -9 10 -127 10 -133 0 -2 -4 -10 -4 -16 0 -18 11
-38 12 -31 2 3 -5 0 -9 -5 -9 -6 0 -11 4 -11 8 0 5 -7 9 -15 9 -8 0 -12 -4 -9
-9 8 -13 -10 -10 -25 5 -11 10 -12 9 -6 -3 8 -13 7 -13 -8 -1 -14 11 -17 11
-17 0 0 -12 -2 -12 -9 0 -7 11 -9 11 -14 0 -4 -12 -7 -11 -16 1 -10 13 -11 13
-11 0 0 -13 -1 -13 -10 0 -9 13 -10 13 -10 0 0 -13 -1 -13 -10 0 -9 13 -10 13
-10 0 0 -9 -3 -11 -8 -5 -10 14 -66 20 -57 6 8 -14 -17 -10 -27 4 -5 6 -8 5
-8 -4 0 -10 -3 -11 -14 -2 -10 9 -16 9 -21 1 -5 -8 -11 -8 -21 1 -11 9 -14 9
-14 0 0 -7 -5 -9 -12 -4 -18 10 -58 12 -52 1 3 -4 0 -8 -5 -8 -6 0 -11 6 -11
13 0 9 -3 8 -9 -2 -7 -11 -9 -11 -14 0 -4 11 -6 11 -6 1 -1 -8 -6 -10 -13 -5
-17 10 -168 11 -162 1 3 -4 0 -8 -5 -8 -6 0 -11 4 -11 8 0 5 -7 9 -15 9 -8 0
-12 -4 -9 -9 8 -13 -10 -10 -25 5 -11 10 -12 9 -6 -3 8 -13 7 -13 -8 -1 -13
10 -17 10 -17 1 0 -9 -4 -9 -17 1 -11 10 -14 10 -9 2 4 -7 2 -13 -3 -13 -6 0
-11 5 -11 11 0 8 -5 7 -16 -2 -13 -10 -17 -10 -25 2 -7 11 -9 11 -9 0 0 -10
-3 -11 -13 -2 -10 8 -17 7 -25 -1 -9 -9 -12 -9 -12 0 0 7 -5 12 -11 12 -5 0
-8 -4 -5 -9 7 -11 -13 -9 -31 2 -8 5 -13 3 -13 -4 0 -9 -3 -9 -14 0 -11 9 -16
9 -21 0 -6 -8 -10 -7 -16 2 -7 11 -9 11 -9 1 0 -8 -5 -10 -12 -5 -19 11 -39
13 -32 2 3 -5 0 -9 -5 -9 -6 0 -11 6 -11 13 0 8 -4 7 -10 -3 -9 -13 -10 -13
-10 0 0 13 -1 13 -10 0 -8 -12 -10 -12 -10 -1 0 10 -3 11 -14 2 -8 -7 -17 -8
-20 -3 -6 10 -36 9 -54 -2 -6 -4 -12 -2 -12 3 0 6 -5 11 -11 11 -5 0 -8 -4 -5
-9 7 -11 -13 -9 -33 3 -9 6 -12 5 -7 -2 7 -11 -12 -11 -31 1 -8 5 -13 4 -13
-2 0 -6 -5 -11 -11 -11 -5 0 -7 5 -3 11 5 8 1 8 -14 0 -15 -8 -22 -8 -25 2 -4
9 -6 9 -6 -1 -1 -8 -6 -10 -13 -5 -19 11 -39 13 -32 2 3 -5 0 -9 -5 -9 -6 0
-11 6 -11 13 0 8 -4 7 -10 -3 -6 -10 -10 -11 -10 -2 0 6 -5 12 -11 12 -5 0 -8
-4 -5 -8 3 -5 -1 -9 -9 -9 -8 0 -12 5 -8 10 3 5 -4 4 -16 -2 -16 -9 -21 -9
-21 1 0 9 -3 9 -10 -2 -8 -13 -11 -12 -25 5 -15 20 -15 20 -9 0 5 -20 5 -20
-7 -1 -9 15 -9 21 -1 24 17 5 15 19 -3 26 -12 4 -15 -4 -17 -37z m455 -206 c7
-7 7 -15 -2 -25 -9 -11 -35 -14 -109 -13 -92 2 -97 3 -100 24 -3 20 2 22 50
25 86 5 149 1 161 -11z m685 -8 l-3 -28 -105 0 c-98 0 -105 1 -105 20 0 24 26
30 138 34 l78 2 -3 -28z m334 9 c8 -8 8 -15 -2 -26 -10 -13 -32 -15 -102 -14
-87 2 -114 12 -100 35 13 20 185 24 204 5z m-677 -17 c0 -19 -8 -20 -107 -23
l-108 -3 0 26 0 26 108 -3 c99 -3 107 -4 107 -23z m1020 0 c0 -18 -8 -20 -99
-23 -101 -3 -124 4 -113 33 6 13 23 15 109 13 95 -3 103 -4 103 -23z m330 0
c0 -19 -7 -20 -97 -20 -76 0 -99 3 -103 14 -9 23 10 28 108 27 85 -1 92 -3 92
-21z"/>
<path d="M2923 2781 c-107 -58 -126 -171 -41 -254 17 -18 94 -47 171 -66 55
-13 77 -30 77 -60 0 -25 -28 -41 -74 -41 -27 0 -43 8 -68 34 -32 32 -36 34
-101 31 -37 -1 -70 -4 -73 -7 -15 -16 20 -96 58 -130 22 -21 43 -38 47 -39 3
0 15 -3 26 -5 44 -11 163 -12 208 -1 31 7 63 24 88 47 37 34 40 41 46 103 6
79 -6 115 -49 149 -28 21 -83 43 -133 53 -86 17 -115 29 -115 50 0 18 9 23 50
30 25 4 42 0 69 -18 32 -21 44 -23 101 -18 l65 6 -2 34 c-3 45 -52 96 -112
115 -74 24 -181 18 -238 -13z"/>
<path d="M5029 2792 c-43 -21 -54 -47 -58 -129 -1 -16 -8 -23 -28 -25 -26 -3
-28 -7 -28 -46 -1 -50 5 -62 32 -65 19 -1 20 -8 19 -139 -1 -76 1 -138 4 -139
23 -5 133 -3 143 3 8 5 12 48 13 135 1 70 2 131 3 135 0 4 15 8 33 10 32 3 32
4 33 52 0 50 -6 58 -48 60 -23 1 -30 25 -12 38 5 4 22 8 37 8 15 0 30 6 35 13
12 19 13 86 1 93 -22 14 -148 10 -179 -4z"/>
<path d="M1883 2792 c-48 -3 -53 -5 -54 -28 -4 -125 -1 -506 5 -511 3 -4 36
-7 72 -8 50 -1 67 2 73 14 6 12 8 493 2 522 -2 10 -41 14 -98 11z"/>
<path d="M469 2778 c-6 -55 -4 -506 2 -518 6 -12 23 -15 76 -14 37 1 73 2 78
3 7 1 10 39 10 99 -1 53 1 103 3 110 3 8 30 12 87 12 97 0 91 8 90 -127 -1
-75 2 -92 15 -95 32 -8 142 -1 148 9 6 9 8 488 3 526 -1 4 -38 7 -83 5 l-83
-3 0 -85 0 -85 -90 0 -90 0 0 85 0 85 -82 3 c-62 2 -83 0 -84 -10z"/>
<path d="M1588 2778 c-4 -11 -3 -493 1 -523 0 -6 34 -10 76 -10 l75 0 1 30 c0
16 1 138 1 270 l1 240 -76 3 c-54 2 -76 -1 -79 -10z"/>
<path d="M6349 2783 c-1 -5 -3 -42 -4 -83 -2 -41 -3 -77 -4 -79 -1 -2 -12 4
-26 13 -29 19 -89 26 -131 15 -17 -5 -48 -28 -70 -51 l-40 -43 0 -105 c1 -105
7 -127 44 -172 37 -44 121 -56 189 -27 31 13 43 15 46 5 4 -10 72 -14 132 -7
7 1 10 92 9 264 -1 144 -2 265 -3 270 0 4 -32 7 -71 7 -38 0 -71 -3 -71 -7z
m-29 -258 c27 -25 25 -132 -3 -162 -48 -53 -97 -7 -93 87 3 89 45 121 96 75z"/>
<path d="M3460 2742 c-57 -21 -52 -16 -59 -58 -4 -26 -12 -38 -24 -40 -25 -3
-26 -5 -28 -40 -4 -63 0 -73 28 -76 l26 -3 2 -110 c2 -156 18 -178 135 -181
78 -2 97 8 96 56 -2 43 -12 61 -31 54 -7 -3 -22 -1 -33 5 -16 9 -18 20 -17 88
2 43 3 81 4 86 0 4 17 7 37 7 l35 0 -3 53 -3 52 -39 2 c-21 1 -41 5 -44 7 -3
3 -5 29 -6 58 -1 61 -9 65 -76 40z"/>
<path d="M1182 2640 c-20 -10 -49 -30 -64 -46 -49 -53 -58 -95 -50 -228 3 -34
80 -110 126 -124 63 -18 189 -9 225 17 43 31 84 82 73 93 -13 13 -123 18 -146
6 -42 -23 -82 -20 -110 8 -14 15 -26 31 -26 35 0 10 4 10 175 12 l120 2 -1 63
c0 44 -5 66 -15 73 -8 5 -11 9 -6 9 14 0 -48 62 -73 73 -64 26 -177 30 -228 7z"/>
<path d="M2203 2645 c-35 -12 -82 -52 -115 -98 -22 -31 -31 -116 -17 -175 9
-40 93 -126 127 -130 75 -9 142 -7 177 5 46 16 110 74 123 112 12 34 9 149 -5
181 -14 31 -74 87 -111 101 -38 15 -141 17 -179 4z m128 -121 c25 -23 27 -134
3 -158 -25 -26 -62 -31 -84 -11 -21 19 -43 72 -32 79 4 2 7 21 6 40 -3 63 60
93 107 50z"/>
<path d="M3805 2644 c-19 -6 -35 -9 -35 -5 0 14 -53 -53 -66 -84 -17 -42 -16
-42 69 -49 50 -4 62 -1 79 16 26 26 83 30 103 8 14 -15 14 -18 0 -30 -8 -7
-15 -9 -15 -6 0 4 -8 2 -17 -3 -10 -5 -36 -12 -58 -16 -22 -4 -47 -8 -55 -10
-8 -2 -22 -4 -31 -4 -9 -1 -33 -16 -54 -34 -32 -28 -38 -40 -40 -77 -2 -35 3
-49 24 -70 39 -40 60 -48 127 -45 62 3 90 12 119 41 15 15 17 15 22 -5 6 -24
1 -23 73 -25 64 -3 83 2 73 17 -4 6 -7 74 -8 152 0 77 -4 146 -8 153 -5 6 -5
12 -1 12 16 0 -65 66 -82 68 -84 8 -191 6 -219 -4z m162 -241 c8 -23 -33 -56
-74 -59 -69 -5 -67 49 2 62 16 3 31 7 33 9 7 6 36 -2 39 -12z"/>
<path d="M4423 2648 c-18 -5 -33 -13 -33 -19 0 -6 -4 -7 -10 -4 -5 3 -10 0
-10 -7 -1 -8 -6 -6 -15 6 -12 16 -26 19 -77 17 -34 -1 -65 -4 -68 -7 -3 -3 -5
-91 -5 -194 0 -160 2 -190 15 -193 13 -3 94 -2 125 2 7 1 11 43 10 117 -1 124
9 156 51 162 35 5 48 -24 49 -107 1 -42 5 -82 8 -88 4 -7 3 -14 -3 -18 -10 -6
-7 -45 4 -63 6 -10 132 -9 142 1 4 3 7 60 8 127 2 106 5 122 22 135 10 8 26
15 35 15 34 0 42 -28 43 -148 1 -64 4 -122 8 -127 5 -9 71 -12 125 -6 8 1 11
48 10 171 l-2 171 -34 29 c-18 17 -42 31 -52 31 -80 6 -123 -5 -148 -36 l-18
-24 -19 20 c-37 41 -97 55 -161 37z"/>
<path d="M5357 2647 c-39 -9 -107 -72 -132 -120 -12 -25 -13 -129 -1 -167 11
-33 75 -96 111 -111 17 -7 59 -13 95 -15 94 -3 148 23 203 101 17 23 22 45 23
105 1 41 -3 84 -8 95 -19 36 -81 95 -114 105 -45 15 -131 19 -177 7z m129
-130 c18 -21 22 -36 19 -82 -4 -90 -57 -124 -110 -70 -19 19 -25 35 -25 70 0
99 63 143 116 82z"/>
<path d="M5934 2647 c-10 -5 -23 -16 -27 -24 -7 -11 -11 -11 -23 1 -21 21
-132 19 -138 -3 -2 -9 -4 -96 -4 -193 0 -158 2 -178 17 -179 39 -4 107 -5 116
-2 7 2 11 46 10 114 0 100 2 112 24 140 14 19 32 29 45 28 44 -3 52 2 65 39 8
20 16 42 18 49 9 24 -70 48 -103 30z"/>
</g>
</svg>
